
<svg 
    id="DP-logo" 
    xmlns="http://www.w3.org/2000/svg" 
    xmlns:xlink="http://www.w3.org/1999/xlink" 
    viewBox="0 0 300 300" 
    shape-rendering="geometricPrecision" 
    text-rendering="geometricPrecision">
    <defs>
        <filter id="ePjNbmV48Jd2-filter" x="-150%" width="400%" y="-150%" height="400%">
            <feColorMatrix id="ePjNbmV48Jd2-filter-hue-rotate-0" type="hueRotate" values="0" result="result"/>
        </filter>
        <linearGradient id="color">
            <stop stop-color="#fff"></stop>
        </linearGradient>
    </defs>
    <g id="letter-d" filter="url(#ePjNbmV48Jd2-filter)">
        <path d="M122.509592,138.985537l-45.003836.006644" transform="matrix(.866025-.5 0.5 0.866025 23.125852 161.831701)" fill="none" 
        stroke="url(#color)" stroke-width="5" stroke-linecap="round" stroke-linejoin="round"/>
        <path d="M99.969319,100.017714L122.5,138.98L99.969319,100.017714Z" transform="matrix(.866025 0.5-.5 0.866025 123.141352 61.839373)" fill="none" 
        stroke="url(#color)" stroke-width="5" stroke-linecap="round" stroke-linejoin="round"/>
        <path d="M145,100l-22.5,38.98" transform="matrix(.866025-.5 0.5 0.866025 23.125852 161.831701)" fill="none" 
        stroke="url(#color)" stroke-width="5" stroke-linecap="round" stroke-linejoin="round"/>
        <path d="M100,100h45l-22.5,38.98L100,100Z" transform="matrix(.866025 0.5-.5 0.866025 123.125852 16.831701)" fill="none" 
        stroke="url(#color)" stroke-width="5" stroke-linecap="round" stroke-linejoin="round"/>
        <path d="M100,100l35.812497.000002l4.56329,8.011195L122.5,138.98L100,100Z" transform="matrix(0-1 1 0 98.715036 275.917939)" fill="none" 
        stroke="url(#color)" stroke-width="5" stroke-linecap="round" stroke-linejoin="round"/>
        <path d="M100,100l35.812497.000002l4.56329,8.011195L122.5,138.98L100,100Z" transform="matrix(-.866025-.5 0.5-.866025 274.28872 290.020479)" fill="none" 
        stroke="url(#color)" stroke-width="5" stroke-linecap="round" stroke-linejoin="round"/>
        <path d="M100,100l35.812497.000002l4.56329,8.011195L122.5,138.98L100,100Z" transform="matrix(0-1-1 0 298.715036 275.917939)" fill="none" 
        stroke="url(#color)" stroke-width="5" stroke-linecap="round" stroke-linejoin="round"/>
        <path d="M100,100l35.812497.000002l4.56329,8.011195L122.5,138.98L100,100Z" transform="matrix(.866025 0.5-.5 0.866025 123.141352-28.184601)" fill="none" 
        stroke="url(#color)" stroke-width="5" stroke-linecap="round" stroke-linejoin="round"/>
        <path d="M100,100l35.812497.000002l4.56329,8.011195L122.5,138.98L100,100Z" transform="matrix(0 1 1 0 98.715036-14.082061)" fill="none" 
        stroke="url(#color)" stroke-width="5" stroke-linecap="round" stroke-linejoin="round"/>
        <path d="M100,100l35.812497.000002l4.56329,8.011195L122.5,138.98L100,100Z" transform="matrix(0 1-1 0 298.715036-14.082061)" fill="none" 
        stroke="url(#color)" stroke-width="5" stroke-linecap="round" stroke-linejoin="round"/>
    </g>
    <g id="letter-d" transform="translate(0 0.000001)">
        <path d="M100,100l35.812497.000002l4.56329,8.011195L122.5,138.98L100,100Z" transform="matrix(0-1 1 0 11.038821 324.25049)" fill="none" 
        stroke="url(#color)" stroke-width="5" stroke-linecap="round" stroke-linejoin="round"/>
        <path d="M100,100l35.812497.000002l4.56329,8.011195L122.5,138.98L100,100Z" transform="matrix(0-1-1 0 211.038821 324.25049)" fill="none" 
        stroke="url(#color)" stroke-width="5" stroke-linecap="round" stroke-linejoin="round"/>
        <path d="M100,100l35.812497.000002l4.56329,8.011195L122.5,138.98L100,100Z" transform="matrix(-.866025-.5 0.5-.866025 186.612505 338.35303)" fill="none" 
        stroke="url(#color)" stroke-width="5" stroke-linecap="round" stroke-linejoin="round"/>
        <path d="M100,100l35.812497.000002l4.56329,8.011195L122.5,138.98L100,100Z" transform="matrix(.866025 0.5-.5 0.866025 35.465137 20.14795)" fill="none" 
        stroke="url(#color)" stroke-width="5" stroke-linecap="round" stroke-linejoin="round"/>
        <path d="M100,100l35.812497.000002l4.56329,8.011195L122.5,138.98L100,100Z" transform="matrix(0 1 1 0 11.038821 34.25049)" fill="none" 
        stroke="url(#color)" stroke-width="5" stroke-linecap="round" stroke-linejoin="round"/>
        <path d="M100,100l35.812497.000002l4.56329,8.011195L122.5,138.98L100,100Z" transform="matrix(0 1-1 0 211.038821 34.25049)" fill="none" 
        stroke="url(#color)" stroke-width="5" stroke-linecap="round" stroke-linejoin="round"/>
        <path d="M100,100h45l-22.5,38.98L100,100Z" transform="matrix(.866025 0.5 0.5-.866025-25.57922 170.844403)" fill="none" 
        stroke="url(#color)" stroke-width="5" stroke-linecap="round" stroke-linejoin="round"/>
        <path d="M99.969319,100.017714L122.5,138.98L99.969319,100.017714Z" transform="matrix(.866025 0.5-.5 0.866025 113.40078-69.876017)" fill="none" 
        stroke="url(#color)" stroke-width="5" stroke-linecap="round" stroke-linejoin="round"/>
        <path d="M145,100l-22.5,38.98" transform="matrix(.866025-.5 0.5 0.866025-64.554791 73.960256)" fill="none" 
        stroke="url(#color)" stroke-width="5" stroke-linecap="round" stroke-linejoin="round"/>
        <path d="M122.509592,138.985537l-44.37307-.995083" transform="matrix(.866025-.5 0.5 0.866025-25.624617 7.627819)" fill="none" 
        stroke="url(#color)" stroke-width="5" stroke-linecap="round" stroke-linejoin="round"/>
    </g>
</svg>