<?xml version="1.0" standalone="no"?>
<!DOCTYPE svg PUBLIC "-//W3C//DTD SVG 20010904//EN"
 "http://www.w3.org/TR/2001/REC-SVG-20010904/DTD/svg10.dtd">
<svg version="1.0" xmlns="http://www.w3.org/2000/svg"
 width="512.000000pt" height="512.000000pt" viewBox="0 0 512.000000 512.000000"
 preserveAspectRatio="xMidYMid meet">
<defs> 
    <linearGradient id="gradient" x1="0" x2="0" y1="0" y2="1">
        <stop id="stop1" stop-color="#0062e0" offset="0%"></stop>
        <stop id="stop2" stop-color="#17aafd" offset="80%"></stop>
    </linearGradient>
</defs>
<g id="white-bg" transform="translate(20.00000,511.500000) scale(0.092,-0.097)"
fill="#fff" stroke="none" opacity="100%">
<path d="M2315 5109 c-800 -83 -1501 -518 -1927 -1196 -487 -774 -516 -1777
-75 -2578 200 -364 487 -676 841 -913 238 -159 600 -311 876 -366 214 -43 295
-51 530 -51 236 0 333 10 532 51 880 184 1615 842 1898 1702 92 278 125 491
125 802 0 301 -32 513 -116 775 -124 390 -330 728 -622 1024 -399 404 -893
653 -1462 737 -123 18 -478 26 -600 13z"/>
</g>
<g transform="translate(0.000000,512.000000) scale(0.100000,-0.100000)"
fill="url(#gradient)" stroke="none" opacity="100%">
<path d="M2377 5110 c-623 -48 -1183 -305 -1622 -745 -407 -406 -654 -908
-731 -1485 -22 -165 -22 -471 0 -640 130 -985 794 -1792 1731 -2105 126 -42
340 -95 384 -95 l21 0 0 890 0 890 -325 0 -325 0 0 370 0 370 325 0 325 0 0
354 c0 375 7 459 52 596 108 334 366 548 726 600 109 16 431 8 620 -15 l142
-18 0 -317 0 -317 -212 -6 c-173 -4 -224 -9 -274 -24 -80 -26 -144 -71 -183
-130 -59 -88 -64 -120 -69 -435 l-4 -288 356 0 c313 0 356 -2 356 -15 0 -17
-96 -652 -106 -698 l-6 -27 -299 0 -299 0 0 -890 0 -890 21 0 c44 0 258 53
384 95 519 173 949 490 1273 938 420 581 573 1334 416 2047 -103 466 -342 899
-689 1245 -405 405 -915 657 -1475 729 -151 19 -378 26 -513 16z"/>
</g>
</svg>
