<svg width="435" height="248" viewBox="0 0 435 248" fill="none" xmlns="http://www.w3.org/2000/svg">
<path d="M61 95.5L64.9163 96.3138L61 95.5ZM137.479 173L133.689 171.72L137.479 173ZM1.17157 215.172C-0.390524 216.734 -0.390524 219.266 1.17157 220.828L26.6274 246.284C28.1895 247.846 30.7222 247.846 32.2843 246.284C33.8464 244.722 33.8464 242.19 32.2843 240.627L9.65685 218L32.2843 195.373C33.8464 193.81 33.8464 191.278 32.2843 189.716C30.7222 188.154 28.1895 188.154 26.6274 189.716L1.17157 215.172ZM249.144 93.2908C235.768 113.481 226.06 128.352 211.272 138.446C196.647 148.429 176.578 154 142 154V162C177.355 162 199.276 156.321 215.782 145.054C232.124 133.898 242.689 117.519 255.813 97.7092L249.144 93.2908ZM142 154C116.63 154 95.8842 145.544 82.2536 134.009C68.5028 122.373 62.4645 108.113 64.9163 96.3138L57.0837 94.6862C53.8212 110.387 62.0329 127.378 77.0857 140.116C92.2587 152.956 114.87 162 142 162V154ZM64.9163 96.3138C68.6543 78.325 78.2539 69.3527 88.7109 65.6476C99.4413 61.8455 111.582 63.4179 120.263 67.6031L123.737 60.3969C113.418 55.4214 99.0587 53.4937 86.0391 58.1069C72.7461 62.8169 61.3457 74.175 57.0837 94.6862L64.9163 96.3138ZM120.263 67.6031C124.012 69.4106 127.936 73.3595 131.426 79.5371C134.885 85.66 137.749 93.682 139.532 103.139C143.097 122.046 142.271 146.31 133.689 171.72L141.268 174.28C150.282 147.591 151.217 121.935 147.394 101.657C145.483 91.5217 142.365 82.6348 138.391 75.6019C134.449 68.6236 129.488 63.1698 123.737 60.3969L120.263 67.6031ZM133.689 171.72C129.969 182.734 124.947 190.665 118.492 196.486C112.029 202.316 103.879 206.256 93.5442 208.891C72.6061 214.229 43.7635 214 4 214V222C43.2365 222 73.3573 222.294 95.5206 216.643C106.737 213.784 116.172 209.352 123.85 202.427C131.536 195.495 137.212 186.289 141.268 174.28L133.689 171.72Z" fill="white"/>
<path d="M196.903 16H191.267C190.934 14.3788 190.35 12.9545 189.517 11.7273C188.699 10.5 187.699 9.4697 186.517 8.63636C185.35 7.78788 184.055 7.15151 182.631 6.72727C181.206 6.30303 179.722 6.09091 178.176 6.09091C175.358 6.09091 172.805 6.80303 170.517 8.22727C168.244 9.65151 166.434 11.75 165.085 14.5227C163.752 17.2955 163.085 20.697 163.085 24.7273C163.085 28.7576 163.752 32.1591 165.085 34.9318C166.434 37.7045 168.244 39.803 170.517 41.2273C172.805 42.6515 175.358 43.3636 178.176 43.3636C179.722 43.3636 181.206 43.1515 182.631 42.7273C184.055 42.303 185.35 41.6742 186.517 40.8409C187.699 39.9924 188.699 38.9545 189.517 37.7273C190.35 36.4848 190.934 35.0606 191.267 33.4545H196.903C196.479 35.8333 195.706 37.9621 194.585 39.8409C193.464 41.7197 192.07 43.3182 190.403 44.6364C188.737 45.9394 186.866 46.9318 184.79 47.6136C182.729 48.2955 180.525 48.6364 178.176 48.6364C174.206 48.6364 170.676 47.6667 167.585 45.7273C164.494 43.7879 162.063 41.0303 160.29 37.4545C158.517 33.8788 157.631 29.6364 157.631 24.7273C157.631 19.8182 158.517 15.5758 160.29 12C162.063 8.42424 164.494 5.66667 167.585 3.72727C170.676 1.78788 174.206 0.81818 178.176 0.81818C180.525 0.81818 182.729 1.15909 184.79 1.84091C186.866 2.52273 188.737 3.52273 190.403 4.84091C192.07 6.14394 193.464 7.73485 194.585 9.61364C195.706 11.4773 196.479 13.6061 196.903 16ZM210.648 27V48H205.284V1.45454H210.648V18.5455H211.102C211.92 16.7424 213.148 15.3106 214.784 14.25C216.436 13.1742 218.633 12.6364 221.375 12.6364C223.754 12.6364 225.837 13.1136 227.625 14.0682C229.413 15.0076 230.799 16.4545 231.784 18.4091C232.784 20.3485 233.284 22.8182 233.284 25.8182V48H227.92V26.1818C227.92 23.4091 227.201 21.2652 225.761 19.75C224.337 18.2197 222.36 17.4545 219.83 17.4545C218.072 17.4545 216.496 17.8258 215.102 18.5682C213.723 19.3106 212.633 20.3939 211.83 21.8182C211.042 23.2424 210.648 24.9697 210.648 27ZM257.733 48.7273C254.369 48.7273 251.468 47.9848 249.028 46.5C246.604 45 244.733 42.9091 243.415 40.2273C242.112 37.5303 241.46 34.3939 241.46 30.8182C241.46 27.2424 242.112 24.0909 243.415 21.3636C244.733 18.6212 246.566 16.4848 248.915 14.9545C251.278 13.4091 254.036 12.6364 257.188 12.6364C259.006 12.6364 260.801 12.9394 262.574 13.5455C264.347 14.1515 265.96 15.1364 267.415 16.5C268.869 17.8485 270.028 19.6364 270.892 21.8636C271.756 24.0909 272.188 26.8333 272.188 30.0909V32.3636H245.278V27.7273H266.733C266.733 25.7576 266.339 24 265.551 22.4545C264.778 20.9091 263.672 19.6894 262.233 18.7955C260.809 17.9015 259.127 17.4545 257.188 17.4545C255.051 17.4545 253.203 17.9848 251.642 19.0455C250.097 20.0909 248.907 21.4545 248.074 23.1364C247.241 24.8182 246.824 26.6212 246.824 28.5455V31.6364C246.824 34.2727 247.278 36.5076 248.188 38.3409C249.112 40.1591 250.392 41.5455 252.028 42.5C253.665 43.4394 255.566 43.9091 257.733 43.9091C259.142 43.9091 260.415 43.7121 261.551 43.3182C262.703 42.9091 263.695 42.303 264.528 41.5C265.362 40.6818 266.006 39.6667 266.46 38.4545L271.642 39.9091C271.097 41.6667 270.18 43.2121 268.892 44.5455C267.604 45.8636 266.013 46.8939 264.119 47.6364C262.225 48.3636 260.097 48.7273 257.733 48.7273ZM294.528 48.7273C291.256 48.7273 288.438 47.9545 286.074 46.4091C283.71 44.8636 281.892 42.7348 280.619 40.0227C279.347 37.3106 278.71 34.2121 278.71 30.7273C278.71 27.1818 279.362 24.053 280.665 21.3409C281.983 18.6136 283.816 16.4848 286.165 14.9545C288.528 13.4091 291.286 12.6364 294.438 12.6364C296.892 12.6364 299.104 13.0909 301.074 14C303.044 14.9091 304.657 16.1818 305.915 17.8182C307.172 19.4545 307.953 21.3636 308.256 23.5455H302.892C302.483 21.9545 301.574 20.5455 300.165 19.3182C298.771 18.0758 296.892 17.4545 294.528 17.4545C292.438 17.4545 290.604 18 289.028 19.0909C287.468 20.1667 286.248 21.6894 285.369 23.6591C284.506 25.6136 284.074 27.9091 284.074 30.5455C284.074 33.2424 284.498 35.5909 285.347 37.5909C286.21 39.5909 287.422 41.1439 288.983 42.25C290.559 43.3561 292.407 43.9091 294.528 43.9091C295.922 43.9091 297.188 43.6667 298.324 43.1818C299.46 42.697 300.422 42 301.21 41.0909C301.998 40.1818 302.559 39.0909 302.892 37.8182H308.256C307.953 39.8788 307.203 41.7348 306.006 43.3864C304.824 45.0227 303.256 46.3258 301.301 47.2955C299.362 48.25 297.104 48.7273 294.528 48.7273ZM321.097 35.2727L321.006 28.6364H322.097L337.369 13.0909H344.006L327.733 29.5455H327.278L321.097 35.2727ZM316.097 48V1.45454H321.46V48H316.097ZM338.278 48L324.642 30.7273L328.46 27L345.097 48H338.278ZM375.273 1.45454V48H369.636V1.45454H375.273ZM401.028 13.0909V17.6364H382.938V13.0909H401.028ZM388.21 4.72727H393.574V38C393.574 39.5152 393.794 40.6515 394.233 41.4091C394.688 42.1515 395.263 42.6515 395.96 42.9091C396.672 43.1515 397.422 43.2727 398.21 43.2727C398.801 43.2727 399.286 43.2424 399.665 43.1818C400.044 43.1061 400.347 43.0455 400.574 43L401.665 47.8182C401.301 47.9545 400.794 48.0909 400.142 48.2273C399.491 48.3788 398.665 48.4545 397.665 48.4545C396.15 48.4545 394.665 48.1288 393.21 47.4773C391.771 46.8258 390.574 45.8333 389.619 44.5C388.68 43.1667 388.21 41.4848 388.21 39.4545V4.72727ZM314.315 101.727C314.315 106.636 313.429 110.879 311.656 114.455C309.884 118.03 307.452 120.788 304.361 122.727C301.27 124.667 297.74 125.636 293.77 125.636C289.8 125.636 286.27 124.667 283.179 122.727C280.088 120.788 277.656 118.03 275.884 114.455C274.111 110.879 273.224 106.636 273.224 101.727C273.224 96.8182 274.111 92.5758 275.884 89C277.656 85.4242 280.088 82.6667 283.179 80.7273C286.27 78.7879 289.8 77.8182 293.77 77.8182C297.74 77.8182 301.27 78.7879 304.361 80.7273C307.452 82.6667 309.884 85.4242 311.656 89C313.429 92.5758 314.315 96.8182 314.315 101.727ZM308.861 101.727C308.861 97.697 308.187 94.2955 306.838 91.5227C305.505 88.75 303.694 86.6515 301.406 85.2273C299.134 83.803 296.588 83.0909 293.77 83.0909C290.952 83.0909 288.399 83.803 286.111 85.2273C283.838 86.6515 282.027 88.75 280.679 91.5227C279.346 94.2955 278.679 97.697 278.679 101.727C278.679 105.758 279.346 109.159 280.679 111.932C282.027 114.705 283.838 116.803 286.111 118.227C288.399 119.652 290.952 120.364 293.77 120.364C296.588 120.364 299.134 119.652 301.406 118.227C303.694 116.803 305.505 114.705 306.838 111.932C308.187 109.159 308.861 105.758 308.861 101.727ZM345.065 110.727V90.0909H350.429V125H345.065V119.091H344.702C343.884 120.864 342.611 122.371 340.884 123.614C339.156 124.841 336.974 125.455 334.338 125.455C332.156 125.455 330.217 124.977 328.52 124.023C326.823 123.053 325.49 121.598 324.52 119.659C323.55 117.705 323.065 115.242 323.065 112.273V90.0909H328.429V111.909C328.429 114.455 329.141 116.485 330.565 118C332.005 119.515 333.838 120.273 336.065 120.273C337.399 120.273 338.755 119.932 340.134 119.25C341.527 118.568 342.694 117.523 343.634 116.114C344.588 114.705 345.065 112.909 345.065 110.727ZM375.435 90.0909V94.6364H357.344V90.0909H375.435ZM362.616 81.7273H367.98V115C367.98 116.515 368.2 117.652 368.639 118.409C369.094 119.152 369.67 119.652 370.366 119.909C371.079 120.152 371.829 120.273 372.616 120.273C373.207 120.273 373.692 120.242 374.071 120.182C374.45 120.106 374.753 120.045 374.98 120L376.071 124.818C375.707 124.955 375.2 125.091 374.548 125.227C373.897 125.379 373.071 125.455 372.071 125.455C370.556 125.455 369.071 125.129 367.616 124.477C366.177 123.826 364.98 122.833 364.026 121.5C363.086 120.167 362.616 118.485 362.616 116.455V81.7273Z" fill="white"/>
</svg>
