<svg viewBox="0 0 580 768" fill="none" xmlns="http://www.w3.org/2000/svg">
    <path
    id="scroll-line-4"
    d="M485 4C485 4 527.352 194.119 450.5 198C402.3 200.434 363.35 173.579 349 127.5C326.705 55.9107 486.991 75.489 541 127.5C602.046 186.288 574.694 278.76 520 343.5C458.222 416.625 368.715 417.516 278.5 385.5C234.403 369.851 217.742 350.5 221.5 329.5C230 282 278.5 277.5 321.5 312C393.382 369.673 297.5 528 264.5 541C231.5 554 153.06 582.198 91 554.5C48.4871 535.526 4.00004 513.5 4 473C3.99996 432.5 114.84 430.22 166 467.5C247.063 526.57 126.835 625.223 63.5 703C42.4871 728.804 4 764 4 764"
    stroke="url(#paint0_radial_104_5)"
    stroke-width="8"
    stroke-linecap="round" />
    <defs>
    <radialGradient
        id="paint0_radial_104_5"
        cx="0"
        cy="0"
        r="1"
        gradientUnits="userSpaceOnUse"
        gradientTransform="translate(465 147.5) rotate(124.873) scale(806.29 606.555)">
        <stop stop-color="#F87D37" />
        <stop offset="1" stop-color="#FBAA23" />
    </radialGradient>
    </defs>
</svg>